<?xml version="1.0" encoding="utf-8"?>

<!DOCTYPE svg PUBLIC "-//W3C//DTD SVG 1.1//EN" "http://www.w3.org/Graphics/SVG/1.1/DTD/svg11.dtd">
<!-- Uploaded to: SVG Repo, www.svgrepo.com, Generator: SVG Repo Mixer Tools -->
<svg height="800px" width="800px" version="1.1" id="_x32_" xmlns="http://www.w3.org/2000/svg" xmlns:xlink="http://www.w3.org/1999/xlink" 
	 viewBox="0 0 512 512"  xml:space="preserve">
<style type="text/css">
	.st0{fill:#000000;}
</style>
<g>
	<path class="st0" d="M456.365,400.963c-5.005-12.814-12.44-22.609-21.062-29.829c-17.302-14.353-75.916-39.687-81.878-41.528
		c13.915-16.489,58.392-35.567,58.392-35.567c-17.525-36.085-49.705-46.54-62.224-49.409c1.107-3.388,2.064-6.997,2.87-10.751
		c6.191-2.358,14.288-6.185,22.242-14.655c9.866-10.456,19.66-27.319,28.865-56.55c2.064-6.48,3.092-11.708,3.092-16.497
		c0-3.61-0.59-7.068-2.359-10.16c-1.761-3.164-4.854-5.523-7.946-6.552c-2.064-0.741-4.056-0.956-5.968-0.956
		c-2.948,0-15.166,6.45-17.82,7.191c4.272-20.178,12.584-80.72,3.416-113.655C371.245,4.95,361.17-4.456,332.334,2.095
		C311.429,6.834,256,12.968,256,12.968s-55.429-6.134-76.333-10.873c-28.837-6.55-38.911,2.855-43.65,19.948
		c-9.168,32.936-0.856,93.477,3.416,113.655c-2.654-0.741-14.871-7.191-17.819-7.191c-1.913,0-3.905,0.216-5.969,0.956
		c-3.092,1.029-6.184,3.387-7.946,6.552c-1.769,3.092-2.359,6.55-2.359,10.16c0,4.79,1.029,10.018,3.092,16.497
		c9.204,29.231,18.999,46.094,28.865,56.55c7.953,8.47,16.05,12.297,22.242,14.655c0.805,3.754,1.762,7.364,2.869,10.751
		c-12.52,2.869-44.7,13.324-62.224,49.409c0,0,44.477,19.078,58.392,35.567c-5.962,1.841-64.576,27.175-81.878,41.528
		c-8.622,7.22-16.058,17.014-21.063,29.829c-5.156,12.808-7.954,28.642-7.954,48.23c0,3.092,0.072,6.328,0.223,9.644
		c0.072,2.797,1.1,5.084,2.28,6.924c2.286,3.531,5.378,6.034,9.205,8.687c6.702,4.495,16.05,8.838,27.98,13.11
		C123.231,500.293,182.658,511.929,256,512c73.342-0.071,132.768-11.707,168.631-24.442c11.93-4.272,21.278-8.615,27.98-13.11
		c3.826-2.653,6.918-5.156,9.205-8.687c1.179-1.841,2.208-4.127,2.279-6.924c0.151-3.315,0.223-6.552,0.223-9.644
		C464.318,429.605,461.521,413.77,456.365,400.963z M257.252,227.766h-39.278l3.682,9.794c0,0,2.431,17.158,13.476,24.522V237.56
		h22.12v122.004l-1.251,0.82l-48.971-32.029c0.374-1.546,0.661-3.164,0.661-4.862v-37.185l-2.128-2.358
		c-11.046-12.297-25.996-28.57-31.152-57.658l-0.813-4.638l-4.415-1.546c-6.63-2.431-12.52-4.199-20.106-12.002
		c-7.508-7.881-16.418-22.458-25.255-50.294c-1.69-5.451-2.359-9.428-2.28-11.636l0.072-1.474c1.179,0,3.753,0.518,6.478,1.625
		c4.272,1.618,9.133,4.344,12.815,6.624c1.768,1.107,3.315,2.136,4.415,2.876l1.179,0.877l0.368,0.223h0.071l4.717,3.538
		l19.661,43.959c0,0,4.933-24.522,4.933-40.5c0-5.45-17.158-68.704-1.251-66.273c7.73,1.179,81,29.454,81,29.454
		s0.467-0.18,1.251-0.482V227.766z M290.344,237.56c0,0-2.43,17.158-13.476,24.522V237.56h-15.964v-9.794h33.122L290.344,237.56z
		 M302.663,197.067l-19.639-23.321l40.5-7.364L302.663,197.067z M349.297,210.651c8.867-6.688,17.834-30.418,24.543-46.72
		c2.704-6.58,3.703-11.312,3.3-14.462c2.251-1.201,4.588-2.316,6.767-3.143c2.725-1.107,5.3-1.625,6.479-1.625l0.072,1.474
		c0.08,2.208-0.589,6.185-2.279,11.636c-8.838,27.837-17.748,42.413-25.255,50.294c-5.056,5.199-9.356,7.709-13.627,9.528V210.651z"
		/>
	<polygon class="st0" points="217.981,197.067 237.62,173.746 197.12,166.383 	"/>
</g>
</svg>